#!OML:ASF F:\VICON\USERDATA\INSTALL\rory3\rory3.ASF
:FULLY-SPECIFIED
:DEGREES
1156
root 1.583 17.8123 13.8009 3.85572 -51.8356 3.16853
lowerback 4.75413 1.38052 -4.09554
upperback 0.106984 1.64296 1.11573
thorax -2.70528 0.877475 3.33455
lowerneck -20.2033 -3.2679 -10.0664
upperneck 27.8799 -2.74265 4.2917
head 12.9008 -1.78047 2.89029
rclavicle -2.94201e-014 9.93923e-015
rhumerus -27.5009 -4.55668 -81.1022
rradius 34.1937
rwrist 19.3948
rhand -20.2325 2.79268
rfingers 7.12502
rthumb 6.11534 -27.0991
lclavicle -2.94201e-014 9.93923e-015
lhumerus -32.4683 15.3922 72.6381
lradius 26.7636
lwrist -2.98981
lhand -12.8168 27.931
lfingers 7.12502
lthumb 13.2698 57.4885
rfemur -20.3075 11.3656 10.9256
rtibia 35.2704
rfoot -7.19327 19.295
rtoes 5.0628
lfemur -14.456 -5.16017 -21.4694
ltibia 20.2497
lfoot -9.54864 -9.95905
ltoes -10.1515
1157
root 1.61532 17.8039 13.8137 3.39263 -52.6908 3.60732
lowerback 5.01684 1.40601 -4.49449
upperback 0.174188 1.64075 1.02476
thorax -2.79199 0.881275 3.46061
lowerneck -20.3757 -3.19632 -9.85586
upperneck 27.9042 -2.65336 4.16016
head 12.9321 -1.73592 2.8182
rclavicle 7.61842e-014 -1.59028e-014
rhumerus -27.6159 -4.75415 -81.0134
rradius 34.1272
rwrist 18.5482
rhand -20.8757 1.38408
rfingers 7.12502
rthumb 5.49434 -28.5247
lclavicle 7.61842e-014 -1.59028e-014
lhumerus -32.0177 15.1367 72.3874
lradius 26.7057
lwrist -2.83306
lhand -13.2346 28.1168
lfingers 7.12502
lthumb 12.8671 57.7002
rfemur -20.6091 10.9577 10.9149
rtibia 35.8002
rfoot -8.94091 17.194
rtoes 1.13591
lfemur -14.3439 -4.96208 -21.8696
ltibia 20.3064
lfoot -9.60496 -9.31493
ltoes -10.781
1158
root 1.64112 17.8174 13.8344 2.96761 -53.5176 4.11694
lowerback 5.01348 1.36115 -4.9239
upperback 0.25877 1.5544 0.915436
thorax -2.70316 0.838924 3.59702
lowerneck -20.5703 -3.09625 -9.59572
upperneck 27.8874 -2.52857 4.00161
head 12.947 -1.67282 2.73252
rclavicle -4.49253e-014 3.18055e-015
rhumerus -27.5777 -5.0806 -81.017
rradius 33.9549
rwrist 18.02
rhand -21.2158 0.509619
rfingers 7.12502
rthumb 5.16598 -29.4074
lclavicle -4.49253e-014 3.18055e-015
lhumerus -31.6436 15.1186 71.9748
lradius 26.6958
lwrist -3.12552
lhand -13.0443 28.4137
lfingers 7.12502
lthumb 13.0505 57.9854
rfemur -20.9715 9.70161 10.9445
rtibia 36.3487
rfoot -10.3434 15.5735
rtoes -2.39793
lfemur -14.2972 -4.7852 -22.3105
ltibia 20.3752
lfoot -9.69839 -8.68145
ltoes -11.0734
1159
root 1.66295 17.8292 13.8595 3.27188 -54.4929 3.89848
lowerback 4.74026 1.28861 -4.92289
upperback 0.321151 1.47356 0.927931
thorax -2.47749 0.79181 3.62144
lowerneck -20.7195 -2.91897 -9.35761
upperneck 27.8361 -2.31348 3.91655
head 12.9324 -1.56235 2.69466
rclavicle 3.13086e-014 5.1684e-015
rhumerus -27.4508 -5.459 -81.0356
rradius 33.6537
rwrist 17.9537
rhand -21.1372 0.525082
rfingers 7.12502
rthumb 5.24185 -29.3901
lclavicle 3.13086e-014 5.1684e-015
lhumerus -31.4649 15.3382 71.4614
lradius 26.7916
lwrist -3.36182
lhand -13.0079 28.3914
lfingers 7.12502
lthumb 13.0856 57.9609
rfemur -21.4577 8.55318 11.4689
rtibia 36.8526
rfoot -11.3915 13.9786
rtoes -4.46064
lfemur -14.3733 -4.52736 -22.2595
ltibia 20.4104
lfoot -9.72837 -8.00684
ltoes -10.9505
1160
root 1.68928 17.8277 13.8693 3.41116 -55.6679 3.64376
lowerback 4.89373 1.32931 -5.08379
upperback 0.31266 1.5133 1.03216
thorax -2.58358 0.81687 3.81458
lowerneck -20.5892 -2.73622 -9.33091
upperneck 27.7174 -2.07636 3.9224
head 12.8364 -1.45408 2.73082
rclavicle -6.85807e-015 -5.96354e-015
rhumerus -27.6471 -5.54488 -80.888
rradius 33.588
rwrist 17.6932
rhand -21.0483 1.24996
rfingers 7.12502
rthumb 5.3277 -28.6631
lclavicle -6.85807e-015 -5.96354e-015
lhumerus -31.4669 15.705 70.9557
lradius 26.8623
lwrist -3.91845
lhand -13.0893 28.2081
lfingers 7.12502
lthumb 13.0071 57.7826
rfemur -21.7754 7.96702 12.0884
rtibia 37.2679
rfoot -12.3941 12.0416
rtoes -6.41502
lfemur -14.3403 -3.9875 -22.1917
ltibia 20.5542
lfoot -9.82325 -7.33577
ltoes -11.1146
1161
root 1.7207 17.8248 13.8802 3.67333 -56.6126 3.0749
lowerback 5.24141 1.32915 -4.94237
upperback 0.357281 1.50598 1.14344
thorax -2.73102 0.814671 3.84517
lowerneck -20.5711 -2.59646 -9.24842
upperneck 27.6679 -1.90606 3.91628
head 12.7964 -1.37125 2.74233
rclavicle -5.75979e-014 -4.37326e-015
rhumerus -27.9241 -5.48033 -80.7618
rradius 33.7312
rwrist 17.1744
rhand -21.2466 1.49023
rfingers 7.12502
rthumb 5.13627 -28.4275
lclavicle -5.75979e-014 -4.37326e-015
lhumerus -31.2392 15.9744 70.4584
lradius 26.7554
lwrist -4.49318
lhand -12.5652 28.3109
lfingers 7.12502
lthumb 13.5123 57.8525
rfemur -21.817 7.1645 12.9504
rtibia 37.6333
rfoot -13.6475 9.9739
rtoes -10.1343
lfemur -14.2715 -3.46817 -21.9614
ltibia 20.8918
lfoot -9.99977 -6.7978
ltoes -11.6829
1162
root 1.75036 17.8198 13.8978 3.8983 -57.32 2.7239
lowerback 5.32739 1.2751 -4.7941
upperback 0.411709 1.44101 1.22397
thorax -2.71445 0.779186 3.84955
lowerneck -20.5787 -2.50616 -9.21322
upperneck 27.5868 -1.76167 3.83457
head 12.7522 -1.31354 2.7272
rclavicle 2.59911e-014 -2.38542e-015
rhumerus -28.1762 -5.53194 -80.5008
rradius 33.8537
rwrist 16.917
rhand -21.4296 1.53368
rfingers 7.12502
rthumb 4.95953 -28.3883
lclavicle 2.59911e-014 -2.38542e-015
lhumerus -30.8606 16.0808 70.1835
lradius 26.5404
lwrist -4.93885
lhand -12.166 28.4853
lfingers 7.12502
lthumb 13.897 58.0009
rfemur -21.8738 6.02546 13.6467
rtibia 38.0171
rfoot -14.5035 8.10945
rtoes -10.5058
lfemur -14.3361 -3.21893 -21.8852
ltibia 21.2058
lfoot -10.1772 -6.24293
ltoes -12.1736
1163
root 1.77585 17.8157 13.9162 3.92497 -58.045 2.749
lowerback 5.28018 1.26203 -4.84321
upperback 0.348455 1.42477 1.30763
thorax -2.75526 0.774794 3.96591
lowerneck -20.2979 -2.45621 -9.51646
upperneck 27.5041 -1.61144 3.81364
head 12.6542 -1.28442 2.79324
rclavicle -1.33186e-014 -1.43125e-014
rhumerus -28.5357 -5.75469 -80.0564
rradius 33.8551
rwrist 16.8469
rhand -21.4011 1.99787
rfingers 7.12502
rthumb 4.98705 -27.9234
lclavicle -1.33186e-014 -1.43125e-014
lhumerus -30.6838 15.8946 70.1219
lradius 26.3991
lwrist -5.13029
lhand -12.0395 28.6012
lfingers 7.12502
lthumb 14.0189 58.1084
rfemur -22.056 4.96597 14.0975
rtibia 38.414
rfoot -14.6274 6.57153
rtoes -2.86562
lfemur -14.4691 -2.91952 -22.0359
ltibia 21.4352
lfoot -10.2977 -5.71157
ltoes -11.9476
1164
root 1.7978 17.8183 13.939 3.84902 -58.9106 2.7713
lowerback 5.25773 1.2069 -4.91783
upperback 0.335617 1.34971 1.37552
thorax -2.75152 0.738962 4.08517
lowerneck -20.0785 -2.33158 -9.73757
upperneck 27.4714 -1.39773 3.85093
head 12.5818 -1.2117 2.87916
rclavicle 4.93483e-014 -1.31198e-014
rhumerus -28.8268 -5.52661 -79.8258
rradius 33.8309
rwrist 16.5544
rhand -21.5183 2.28315
rfingers 7.12502
rthumb 4.8739 -27.6408
lclavicle 4.93483e-014 -1.31198e-014
lhumerus -30.5935 15.9073 69.8962
lradius 26.3259
lwrist -5.0461
lhand -11.9627 28.7771
lfingers 7.12502
lthumb 14.093 58.2792
rfemur -22.1789 3.97274 14.5285
rtibia 38.8329
rfoot -15.9268 4.77685
rtoes -6.44861
lfemur -14.4043 -2.61585 -22.1931
ltibia 21.5759
lfoot -10.4581 -5.04616
ltoes -12.1696
1165
root 1.82359 17.8194 13.9618 3.81422 -59.8047 2.74351
lowerback 5.26159 1.19352 -4.92253
upperback 0.365185 1.33174 1.38205
thorax -2.72138 0.728545 4.09628
lowerneck -20.0208 -2.24666 -9.72721
upperneck 27.4284 -1.27521 3.80692
head 12.5421 -1.16295 2.87925
rclavicle -4.49253e-014 -3.97569e-016
rhumerus -29.0488 -5.41133 -79.6723
rradius 33.8433
rwrist 16.2481
rhand -21.6021 2.23276
rfingers 7.12502
rthumb 4.79301 -27.693
lclavicle -4.49253e-014 -3.97569e-016
lhumerus -30.3191 16.0925 69.5446
lradius 26.1931
lwrist -5.41668
lhand -11.6426 28.8707
lfingers 7.12502
lthumb 14.4014 58.351
rfemur -22.3003 2.8677 15.0017
rtibia 39.2858
rfoot -16.8219 3.61957
rtoes -6.29212
lfemur -14.3231 -2.36029 -22.3188
ltibia 21.6164
lfoot -10.4289 -4.25622
ltoes -12.6927
1166
root 1.85062 17.8198 13.9805 3.94748 -60.5789 2.54865
lowerback 5.36298 1.15545 -4.87825
upperback 0.360651 1.2794 1.42018
thorax -2.7772 0.703589 4.11371
lowerneck -20.01 -2.15694 -9.66517
upperneck 27.3667 -1.14239 3.71651
head 12.5032 -1.10908 2.85404
rclavicle -2.6985e-014 4.77083e-015
rhumerus -29.1212 -5.75854 -79.5077
rradius 33.6974
rwrist 16.3845
rhand -21.6517 2.32166
rfingers 7.12502
rthumb 4.7451 -27.6052
lclavicle -2.6985e-014 4.77083e-015
lhumerus -30.0209 16.2435 69.19
lradius 25.9851
lwrist -6.03622
lhand -11.2814 28.7952
lfingers 7.12502
lthumb 14.7494 58.2504
rfemur -22.4305 1.75155 15.6259
rtibia 39.7593
rfoot -17.5445 2.46605
rtoes -5.2169
lfemur -14.2776 -2.09426 -22.3327
ltibia 21.5968
lfoot -10.3456 -3.67235
ltoes -12.5825
1167
root 1.87803 17.8229 14.0011 3.88251 -61.3617 2.68834
lowerback 5.40486 1.05562 -4.91591
upperback 0.345161 1.13834 1.29888
thorax -2.79966 0.633895 4.01943
lowerneck -20.2873 -1.95228 -9.21251
upperneck 27.4771 -0.922056 3.53915
head 12.58 -0.990193 2.7481
rclavicle -1.0138e-014 -7.55382e-015
rhumerus -29.1176 -6.14719 -79.5759
rradius 33.4198
rwrist 16.5882
rhand -21.7413 3.11129
rfingers 7.12502
rthumb 4.65855 -26.8175
lclavicle -1.0138e-014 -7.55382e-015
lhumerus -29.674 16.2362 68.6873
lradius 25.7906
lwrist -6.46447
lhand -11.0612 28.8426
lfingers 7.12502
lthumb 14.9615 58.2822
rfemur -22.6854 0.585965 16.0362
rtibia 40.2684
rfoot -18.2402 1.49547
rtoes -4.10161
lfemur -14.3392 -1.71269 -22.5345
ltibia 21.6166
lfoot -10.3493 -3.2901
ltoes -11.8904
1168
root 1.9054 17.8236 14.0273 3.49307 -62.1853 3.14866
lowerback 5.42495 0.967139 -5.01438
upperback 0.352056 1.00851 1.12911
thorax -2.7885 0.568824 3.90864
lowerneck -20.5983 -1.75202 -8.83425
upperneck 27.6665 -0.706958 3.4388
head 12.6987 -0.873721 2.68567
rclavicle 2.39536e-014 4.77083e-015
rhumerus -29.1954 -6.35469 -79.5463
rradius 33.1154
rwrist 16.664
rhand -21.7947 4.4771
rfingers 7.12502
rthumb 4.60699 -25.4528
lclavicle 2.39536e-014 4.77083e-015
lhumerus -29.3455 16.2699 68.1961
lradius 25.6305
lwrist -6.87796
lhand -10.7361 28.904
lfingers 7.12502
lthumb 15.2747 58.32
rfemur -22.8836 -0.752228 16.2311
rtibia 40.8267
rfoot -18.794 1.0928
rtoes -2.60012
lfemur -14.3226 -1.31653 -22.9204
ltibia 21.6257
lfoot -10.4522 -2.93406
ltoes -11.4441
